<svg width="81" height="188" viewBox="0 0 81 188" fill="none" xmlns="http://www.w3.org/2000/svg">
<g clip-path="url(#clip0_146_474)">
<path d="M57.1577 12.7578C56.8472 11.9267 56.4756 11.1378 56.0523 10.3959" stroke="#354739" stroke-width="4.17" stroke-linecap="round" stroke-linejoin="round"/>
<path d="M52.8445 6.39064C44.7873 -0.986055 29.7265 -0.741887 20.6533 6.62541C9.47767 15.7066 5.69601 31.0187 4.33198 45.3401C3.36305 55.5388 4.62831 68.1417 13.9508 72.4193C23.3673 76.7392 33.8562 69.2968 40.9022 61.7088C45.2106 57.0696 49.3497 51.9984 51.1841 45.9412C53.0185 39.8839 52.0684 32.6058 47.3601 28.3705C42.3885 23.8909 34.463 23.9801 28.5318 27.0839C22.5959 30.1829 18.3251 35.719 14.8538 41.4334C-1.35462 68.1088 -3.53237 102.781 9.21898 131.273C21.2648 158.183 46.3112 178.872 74.9465 185.925" stroke="#354739" stroke-width="1.5" stroke-linecap="round" stroke-linejoin="round" stroke-dasharray="10.97 10.97"/>
<path d="M77.4582 186.507C78.3096 186.69 79.1609 186.864 80.017 187.023" stroke="#354739" stroke-width="4.17" stroke-linecap="round" stroke-linejoin="round"/>
</g>
<defs>
<clipPath id="clip0_146_474">
<rect width="81" height="188" fill="white"/>
</clipPath>
</defs>
</svg>
