<svg width="165" height="204" viewBox="0 0 165 204" fill="none" xmlns="http://www.w3.org/2000/svg">
<g clip-path="url(#clip0_165_3145)">
<path d="M108.129 180.873C108.81 181.442 109.522 181.945 110.257 182.381" stroke="#CE8624" stroke-width="4.17" stroke-linecap="round" stroke-linejoin="round"/>
<path d="M115.024 184.28C125.673 186.716 138.649 179.067 142.902 168.181C148.136 154.765 143.864 139.583 137.978 126.456C133.785 117.108 126.462 106.774 116.243 107.657C105.921 108.55 100.475 120.201 98.0948 130.279C96.6389 136.44 95.5435 142.894 96.9393 149.067C98.335 155.24 102.755 161.1 108.94 162.458C115.476 163.899 122.324 159.908 125.949 154.28C129.58 148.654 130.561 141.731 130.758 135.048C131.681 103.848 116.455 72.6225 91.2973 54.1419C67.5349 36.6889 35.5393 31.0656 7.15592 39.0719" stroke="#CE8624" stroke-width="1.5" stroke-linecap="round" stroke-linejoin="round" stroke-dasharray="10.97 10.97"/>
<path d="M4.68408 39.8057C3.85334 40.0668 3.02724 40.3362 2.20399 40.62" stroke="#CE8624" stroke-width="4.17" stroke-linecap="round" stroke-linejoin="round"/>
</g>
<defs>
<clipPath id="clip0_165_3145">
<rect width="81" height="188" fill="white" transform="translate(164.133 163.744) rotate(150.411)"/>
</clipPath>
</defs>
</svg>
