<svg width="184" height="116" viewBox="0 0 184 116" fill="none" xmlns="http://www.w3.org/2000/svg">
<path d="M3.9075 73.5751C-1.463 83.8521 2.91797 99.1986 12.9764 106.456C25.3726 115.393 42.1438 115.047 57.2339 112.5C67.9794 110.684 80.5826 105.919 82.4217 95.2001C84.2784 84.3736 73.7545 75.688 64.0252 70.5663C58.0766 67.4342 51.7306 64.5944 45.0034 64.3847C38.2762 64.1751 31.058 67.1514 27.9971 73.1362C24.7574 79.4577 27.0225 87.5443 31.8383 92.7599C36.6505 97.9816 43.5103 100.828 50.3342 102.807C82.1895 112.051 118.414 104.733 144.195 83.8383C168.544 64.101 182.934 32.7715 182.329 1.52343" stroke="#CE8624" stroke-width="2" stroke-linecap="round" stroke-linejoin="round" stroke-dasharray="10.97 10.97"/>
</svg>
