<svg width="149" height="120" viewBox="0 0 149 120" fill="none" xmlns="http://www.w3.org/2000/svg">
<g clip-path="url(#clip0_146_479)">
<path d="M16.7347 78.8914C16.3232 79.39 15.9607 79.9119 15.6467 80.4492" stroke="#CE8624" stroke-width="4.17" stroke-linecap="round" stroke-linejoin="round"/>
<path d="M14.2872 83.9322C12.5663 91.7025 18.2055 101.114 26.1593 104.153C35.9606 107.894 47.0012 104.7 56.5361 100.343C63.3253 97.2378 70.8181 91.8476 70.1225 84.4083C69.4193 76.8943 60.9023 72.9895 53.5475 71.3097C49.0506 70.2822 44.3428 69.519 39.852 70.5688C35.3612 71.6187 31.1141 74.8699 30.1559 79.3831C29.1396 84.1515 32.0823 89.1184 36.2012 91.729C40.3189 94.3442 45.368 95.0212 50.2386 95.1287C72.9763 95.6337 95.6506 84.3743 108.988 65.9491C121.584 48.5455 125.518 25.2078 119.54 4.57472" stroke="#CE8624" stroke-width="3" stroke-linecap="round" stroke-linejoin="round" stroke-dasharray="10.97 10.97"/>
<path d="M118.993 2.77808C118.799 2.17432 118.598 1.57398 118.387 0.975811" stroke="#CE8624" stroke-width="4.17" stroke-linecap="round" stroke-linejoin="round"/>
</g>
<defs>
<clipPath id="clip0_146_479">
<rect width="59" height="137" fill="white" transform="translate(29.5 119.595) rotate(-120)"/>
</clipPath>
</defs>
</svg>
