<svg width="120" height="49" viewBox="0 0 120 49" fill="none" xmlns="http://www.w3.org/2000/svg">
<path d="M0.92 0.599998H10.136V30.296H26.648V39H0.92V0.599998ZM42.57 39.896C32.778 39.896 26.826 33.816 26.826 23.832C26.826 13.784 32.906 7.832 42.57 7.832C52.106 7.832 58.25 13.784 58.25 23.832C58.25 33.816 52.298 39.896 42.57 39.896ZM42.57 15.768C38.154 15.768 35.594 18.904 35.594 23.768C35.594 28.696 37.962 31.896 42.506 31.896C47.05 31.896 49.546 28.696 49.546 23.768C49.546 18.904 46.986 15.768 42.57 15.768Z" fill="white"/>
<path d="M64.583 28.952L67.015 28.184C62.343 26.84 59.719 23.64 59.719 18.968C59.719 12.504 64.647 8.664 73.031 8.664H88.199V15.96H84.743C83.463 15.96 81.991 15.896 80.007 15.832V15.896C83.271 16.472 85.703 17.88 85.703 21.4C85.703 26.328 81.031 28.888 72.839 28.888C70.855 28.888 69.127 28.696 67.591 28.312L67.143 29.016C66.887 29.528 66.695 29.848 66.695 30.296C66.695 31.256 67.463 31.704 68.935 31.704C72.519 31.704 76.231 31.384 79.367 31.384C86.343 31.384 89.095 34.456 89.095 39.512C89.095 45.272 85.063 48.6 73.415 48.6C61.319 48.6 58.119 46.36 58.119 42.584C58.119 39.96 60.807 37.976 65.671 37.4C61.831 37.08 60.231 35.544 60.231 33.304C60.231 31.576 61.575 29.72 64.583 28.952ZM79.623 37.464H68.423C65.927 37.464 64.647 38.552 64.647 39.768C64.647 41.688 66.119 42.392 73.223 42.392C80.903 42.392 82.375 41.432 82.375 39.512C82.375 38.296 81.671 37.464 79.623 37.464ZM72.839 15.704C68.935 15.704 67.527 17.304 67.527 19.608C67.527 21.912 68.807 23.448 72.903 23.448C76.935 23.448 78.343 21.912 78.343 19.608C78.343 17.24 76.679 15.704 72.839 15.704ZM104.32 39.896C94.528 39.896 88.576 33.816 88.576 23.832C88.576 13.784 94.656 7.832 104.32 7.832C113.856 7.832 120 13.784 120 23.832C120 33.816 114.048 39.896 104.32 39.896ZM104.32 15.768C99.904 15.768 97.344 18.904 97.344 23.768C97.344 28.696 99.712 31.896 104.256 31.896C108.8 31.896 111.296 28.696 111.296 23.768C111.296 18.904 108.736 15.768 104.32 15.768Z" fill="#CE8624"/>
</svg>
