<svg width="36" height="30" viewBox="0 0 36 30" fill="none" xmlns="http://www.w3.org/2000/svg">
<path d="M24.4727 15.6537H32.7241C32.5834 23.5326 30.9647 24.8316 25.9154 27.6997C25.3348 28.0372 25.1413 28.7458 25.4931 29.3194C25.845 29.8761 26.5839 30.0617 27.1821 29.7243C33.1288 26.35 35.2048 24.2918 35.2048 14.4728V5.3792C35.2048 2.49424 32.7593 0.166016 29.7684 0.166016H24.4903C21.3938 0.166016 19.0539 2.40988 19.0539 5.3792V10.4405C19.0363 13.4099 21.3762 15.6537 24.4727 15.6537Z" fill="#CE8624"/>
<path d="M5.43643 15.6537H13.6878C13.5471 23.5326 11.9285 24.8316 6.8791 27.6997C6.29851 28.0372 6.10499 28.7458 6.45686 29.3194C6.80873 29.8761 7.54766 30.0617 8.14585 29.7243C14.0925 26.35 16.1685 24.2918 16.1685 14.4728V5.3792C16.1685 2.49424 13.723 0.166016 10.7321 0.166016H5.45402C2.33995 0.166016 0 2.40988 0 5.3792V10.4405C0 13.4099 2.33995 15.6537 5.43643 15.6537Z" fill="#CE8624"/>
</svg>
