<svg width="36" height="31" viewBox="0 0 36 31" fill="none" xmlns="http://www.w3.org/2000/svg">
<path d="M10.7321 16.4028H2.48069C2.62144 24.2816 4.24006 25.5807 9.28942 28.4488C9.87001 28.7862 10.0635 29.4948 9.71167 30.0684C9.3598 30.6251 8.62087 30.8107 8.02268 30.4733C2.07604 27.0991 -5.72205e-06 25.0408 -5.72205e-06 15.2218V6.12823C-5.72205e-06 3.24326 2.44551 0.915039 5.43642 0.915039H10.7145C13.811 0.915039 16.1509 3.1589 16.1509 6.12823V11.1896C16.1685 14.1589 13.8286 16.4028 10.7321 16.4028Z" fill="#CE8624"/>
<path d="M29.7684 16.4028H21.517C21.6577 24.2816 23.2763 25.5807 28.3257 28.4488C28.9063 28.7862 29.0998 29.4948 28.7479 30.0684C28.3961 30.6251 27.6571 30.8107 27.059 30.4733C21.1123 27.0991 19.0363 25.0408 19.0363 15.2218V6.12823C19.0363 3.24326 21.4818 0.915039 24.4727 0.915039H29.7508C32.8649 0.915039 35.2048 3.1589 35.2048 6.12823V11.1896C35.2048 14.1589 32.8649 16.4028 29.7684 16.4028Z" fill="#CE8624"/>
</svg>
