<svg width="28" height="31" viewBox="0 0 28 31" fill="none" xmlns="http://www.w3.org/2000/svg">
<path d="M22.25 9.5C24.5972 9.5 26.5 7.59721 26.5 5.25C26.5 2.90279 24.5972 1 22.25 1C19.9028 1 18 2.90279 18 5.25C18 7.59721 19.9028 9.5 22.25 9.5Z" fill="white" stroke="white" stroke-width="2" stroke-linecap="round" stroke-linejoin="round"/>
<path d="M5.25 19.4167C7.59721 19.4167 9.5 17.5139 9.5 15.1667C9.5 12.8195 7.59721 10.9167 5.25 10.9167C2.90279 10.9167 1 12.8195 1 15.1667C1 17.5139 2.90279 19.4167 5.25 19.4167Z" fill="white" stroke="white" stroke-width="2" stroke-linecap="round" stroke-linejoin="round"/>
<path d="M22.25 29.3334C24.5972 29.3334 26.5 27.4306 26.5 25.0834C26.5 22.7362 24.5972 20.8334 22.25 20.8334C19.9028 20.8334 18 22.7362 18 25.0834C18 27.4306 19.9028 29.3334 22.25 29.3334Z" fill="white" stroke="white" stroke-width="2" stroke-linecap="round" stroke-linejoin="round"/>
<path d="M8.91919 17.3058L18.595 22.9442" stroke="white" stroke-width="2" stroke-linecap="round" stroke-linejoin="round"/>
<path d="M18.5809 7.38916L8.91919 13.0275" stroke="white" stroke-width="2" stroke-linecap="round" stroke-linejoin="round"/>
</svg>
